<svg id="visual" viewBox="0 0 900 900" width="900" height="900" xmlns="http://www.w3.org/2000/svg" xmlns:xlink="http://www.w3.org/1999/xlink" version="1.1"><g transform="translate(393.94930304034557 398.2082488734029)"><path d="M165 -222.1C223 -184.9 285.5 -149 325.7 -90.5C365.8 -31.9 383.6 49.2 351 103.1C318.5 157.1 235.7 183.7 168.8 234.3C101.9 284.9 50.9 359.4 -18.6 385.1C-88.2 410.7 -176.3 387.4 -218.5 328.7C-260.7 270.1 -256.8 176.2 -254.6 101.9C-252.3 27.6 -251.7 -27 -231.6 -71C-211.5 -115.1 -171.9 -148.6 -130 -191C-88.2 -233.4 -44.1 -284.7 4.7 -291.1C53.5 -297.6 107 -259.2 165 -222.1" fill="#3500ff"></path></g></svg>