<svg id="visual" viewBox="0 0 900 900" width="900" height="900" xmlns="http://www.w3.org/2000/svg" xmlns:xlink="http://www.w3.org/1999/xlink" version="1.1"><g transform="translate(418.8474319821651 467.8414315024828)"><path d="M183.1 -271.5C224.3 -222 235.8 -151.2 271.6 -79.2C307.5 -7.2 367.7 65.9 356.5 120.6C345.3 175.2 262.6 211.4 191.2 231.4C119.9 251.4 60 255.2 -11.9 271.5C-83.7 287.8 -167.3 316.6 -215.7 289.2C-264 261.7 -277 178 -286.9 103.6C-296.7 29.3 -303.4 -35.7 -277.1 -81.8C-250.8 -127.8 -191.5 -154.9 -139.8 -201C-88.2 -247 -44.1 -312 13.4 -330.5C70.9 -349 141.9 -320.9 183.1 -271.5" fill="#3500ff"></path></g></svg>