<svg id="visual" viewBox="0 0 900 900" width="900" height="900" xmlns="http://www.w3.org/2000/svg" xmlns:xlink="http://www.w3.org/1999/xlink" version="1.1"><g transform="translate(490.3477447297919 438.5039945238494)"><path d="M197.6 -270.2C251 -233.2 285.8 -168.7 288.2 -106.5C290.7 -44.4 260.9 15.3 229.5 63C198.2 110.7 165.2 146.4 126.7 201C88.2 255.7 44.1 329.3 -8.7 341.3C-61.5 353.3 -123 303.7 -194.4 259.7C-265.7 215.7 -346.8 177.4 -364.9 119.2C-383 61 -337.9 -17.1 -304.7 -92.7C-271.5 -168.4 -250.1 -241.5 -201.3 -280C-152.4 -318.5 -76.2 -322.2 -2.1 -319.4C72.1 -316.6 144.2 -307.1 197.6 -270.2" fill="#3500ff"></path></g></svg>