<svg id="visual" viewBox="0 0 900 900" width="900" height="900" xmlns="http://www.w3.org/2000/svg" xmlns:xlink="http://www.w3.org/1999/xlink" version="1.1"><g transform="translate(465.0074484489015 422.08324391122176)"><path d="M152.4 -196.1C205.7 -171.1 262.6 -137.4 296.6 -84.2C330.7 -31 341.7 41.8 329.2 115.2C316.7 188.6 280.6 262.6 221.8 300.6C163 338.7 81.5 340.9 18.7 315.1C-44.1 289.3 -88.2 235.7 -130 192.1C-171.9 148.6 -211.5 115.1 -260.8 61.6C-310 8 -369 -65.5 -363.9 -129.7C-358.8 -193.8 -289.6 -248.6 -218.3 -267.8C-146.9 -286.9 -73.5 -270.5 -12 -254C49.6 -237.6 99.1 -221.1 152.4 -196.1" fill="#3500ff"></path></g></svg>