<svg id="visual" viewBox="0 0 900 900" width="900" height="900" xmlns="http://www.w3.org/2000/svg" xmlns:xlink="http://www.w3.org/1999/xlink" version="1.1"><path d="M0 798L21.5 793.5C43 789 86 780 128.8 774.8C171.7 769.7 214.3 768.3 257.2 774.7C300 781 343 795 385.8 805.7C428.7 816.3 471.3 823.7 514.2 824.5C557 825.3 600 819.7 642.8 817.8C685.7 816 728.3 818 771.2 813.2C814 808.3 857 796.7 878.5 790.8L900 785L900 901L878.5 901C857 901 814 901 771.2 901C728.3 901 685.7 901 642.8 901C600 901 557 901 514.2 901C471.3 901 428.7 901 385.8 901C343 901 300 901 257.2 901C214.3 901 171.7 901 128.8 901C86 901 43 901 21.5 901L0 901Z" fill="#3500ff" stroke-linecap="round" stroke-linejoin="miter"></path></svg>