<?xml version="1.0" standalone="no"?>
<svg viewBox="0 0 200 200" xmlns="http://www.w3.org/2000/svg">
  <path fill="#3F51B5" d="M44.1,-58.3C56.3,-51.9,64.7,-37.8,63.1,-24.8C61.4,-11.7,49.8,0.3,42.4,11C35.1,21.7,32.2,31,25.8,45.5C19.5,60.1,9.7,79.9,-4.7,86.4C-19.2,92.9,-38.4,86.1,-52.9,74.2C-67.4,62.3,-77.2,45.3,-76.7,29.1C-76.2,12.9,-65.5,-2.4,-57.1,-15.5C-48.6,-28.6,-42.6,-39.4,-33.5,-46.9C-24.3,-54.3,-12.2,-58.3,1.9,-60.9C16,-63.5,31.9,-64.7,44.1,-58.3Z" transform="translate(100 100)" />
</svg>
