<?xml version="1.0" standalone="no"?>
<svg viewBox="0 0 200 200" xmlns="http://www.w3.org/2000/svg">
  <path fill="#FC1C18" d="M33.5,-58.3C47.2,-50,64.7,-48.8,74.8,-40.2C84.9,-31.7,87.6,-15.8,83.3,-2.5C79,10.9,67.7,21.7,56.9,29.1C46.1,36.4,35.8,40.3,26.4,48C17,55.8,8.5,67.5,-2.2,71.2C-12.8,74.9,-25.6,70.7,-37.1,64.2C-48.6,57.6,-58.9,48.8,-65.4,37.7C-72,26.6,-74.9,13.3,-76,-0.6C-77,-14.5,-76.2,-29,-69.3,-39.6C-62.5,-50.3,-49.7,-57.1,-37.2,-66.1C-24.6,-75,-12.3,-86.1,-1.2,-84C9.9,-81.9,19.7,-66.6,33.5,-58.3Z" transform="translate(100 100)" />
</svg>
