<?xml version="1.0" standalone="no"?>
<svg viewBox="0 0 200 200" xmlns="http://www.w3.org/2000/svg">
  <path fill="#3F51B5" d="M32.2,-51.8C44.2,-48.9,57.9,-45.2,64.2,-36.4C70.4,-27.6,69,-13.8,65.7,-2C62.3,9.9,56.9,19.8,52.9,32.5C48.9,45.1,46.4,60.6,37.8,72.2C29.2,83.8,14.6,91.5,0.1,91.4C-14.4,91.2,-28.9,83.1,-37.3,71.4C-45.7,59.8,-48.2,44.5,-56.1,32C-64.1,19.5,-77.6,9.7,-80.9,-1.9C-84.2,-13.5,-77.2,-27.1,-67.7,-36.8C-58.1,-46.6,-45.9,-52.5,-34.2,-55.6C-22.5,-58.6,-11.3,-58.7,-0.6,-57.7C10.1,-56.7,20.3,-54.7,32.2,-51.8Z" transform="translate(100 100)" />
</svg>
