<?xml version="1.0" standalone="no"?>
<svg viewBox="0 0 200 200" xmlns="http://www.w3.org/2000/svg">
  <path fill="#FC1C18" d="M14.5,-24.8C22.6,-20.5,35.4,-24.2,44,-21.4C52.6,-18.6,56.9,-9.3,63,3.5C69.1,16.3,76.9,32.6,72.7,43C68.5,53.4,52.3,57.9,38.1,57.6C24,57.2,12,52,4.6,44C-2.8,36,-5.5,25.2,-11.2,20.7C-16.9,16.2,-25.5,17.9,-34.5,15.5C-43.4,13.1,-52.7,6.6,-51.3,0.8C-50,-5,-38.1,-10.1,-32.6,-18.5C-27.2,-26.8,-28.1,-38.5,-23.7,-44.9C-19.3,-51.3,-9.7,-52.4,-3.2,-46.9C3.2,-41.3,6.5,-29.1,14.5,-24.8Z" transform="translate(100 100)" />
</svg>
